# xmcd
# Copyright (C) 1995-1998 Ti Kan
#
# Track frame offsets:
#       150
#       15592
#       31597
#
# Disc length: 634 seconds
#
# Revision: 0
# Processed by: cddbd v1.5.2PL0 Copyright (c) Steve Scherf et al.
# Submitted via: CD-Transfer v1.0
#
DISCID=12027803
DTITLE=Barbara Zanetti - Glory Time
DYEAR=06
DGENRE=
TTITLE0=Glory Time-Official Version
TTITLE1=Glory Time-Slow Version
TTITLE2=Glory Time-Rock Version
EXTD=
EXTT0=
EXTT1=
EXTT2=
PLAYORDER=
